# xmcd
#
# Track frame offsets:
#	150
#	14724
#	32257
#	48089
#	58551
#	73796
#	91208
#	106789
#	120029
#	132281
#	139462
#
# Disc length: 1964 seconds
# Revision: 0
# Processed by: cddbd v1.5.2PL0 Copyright (c) Steve Scherf et al.
# Submitted via: dBpowerAMP V12.0
#
DISCID=8a07aa0b
DTITLE=Cherry Lee Mewis - Heard It Here First
DYEAR=2012
DGENRE=Blues
TTITLE0=Man Overboard
TTITLE1=Goin' Down (To Memphis Tennessee)
TTITLE2=He wants more
TTITLE3=Keep it clean
TTITLE4=Way to your heart
TTITLE5=On Loan
TTITLE6=Just can't live without you
TTITLE7=Hunt you down
TTITLE8=Long Distance Lover
TTITLE9=Sittin' on the porch
TTITLE10=Legend
EXTD=
EXTT0=
EXTT1=
EXTT2=
EXTT3=
EXTT4=
EXTT5=
EXTT6=
EXTT7=
EXTT8=
EXTT9=
EXTT10=
PLAYORDER=
